<?xml version="1.0" encoding="UTF-8" standalone="no"?>
<!DOCTYPE svg PUBLIC "-//W3C//DTD SVG 1.1//EN"
 "http://www.w3.org/Graphics/SVG/1.1/DTD/svg11.dtd">
<!-- Generated by graphviz version 12.1.2 (20240928.0832)
 -->
<!-- Title: dependency&#45;cruiser output Pages: 1 -->
<svg width="94pt" height="76pt"
 viewBox="0.00 0.00 94.00 76.00" xmlns="http://www.w3.org/2000/svg" xmlns:xlink="http://www.w3.org/1999/xlink">
<g id="graph0" class="graph" transform="scale(1 1) rotate(0) translate(4 72)">
<title>dependency&#45;cruiser output</title>
<polygon fill="white" stroke="none" points="-4,4 -4,-72 90,-72 90,4 -4,4"/>
<g id="clust1" class="cluster">
<title>cluster_src</title>
<path fill="#ffffff" stroke="black" stroke-width="2" d="M20,-8C20,-8 66,-8 66,-8 72,-8 78,-14 78,-20 78,-20 78,-48 78,-48 78,-54 72,-60 66,-60 66,-60 20,-60 20,-60 14,-60 8,-54 8,-48 8,-48 8,-20 8,-20 8,-14 14,-8 20,-8"/>
<text text-anchor="middle" x="43" y="-47.45" font-family="Helvetica,sans-Serif" font-weight="bold" font-size="9.00">src</text>
</g>
<!-- src/evm.ts -->
<g id="node1" class="node">
<title>src/evm.ts</title>
<g id="a_node1"><a xlink:href="src/evm.ts" xlink:title="no&#45;orphans">
<path fill="#ccffcc" stroke="orange" d="M64.08,-33.88C64.08,-33.88 21.92,-33.88 21.92,-33.88 18.96,-33.88 16,-30.92 16,-27.96 16,-27.96 16,-22.04 16,-22.04 16,-19.08 18.96,-16.12 21.92,-16.12 21.92,-16.12 64.08,-16.12 64.08,-16.12 67.04,-16.12 70,-19.08 70,-22.04 70,-22.04 70,-27.96 70,-27.96 70,-30.92 67.04,-33.88 64.08,-33.88"/>
<text text-anchor="start" x="29.88" y="-21.32" font-family="Helvetica,sans-Serif" font-size="9.00" fill="orange">evm.ts</text>
</a>
</g>
</g>
</g>
</svg>
